<?xml version="1.0" standalone="no"?>
<!DOCTYPE svg PUBLIC "-//W3C//DTD SVG 20010904//EN"
 "http://www.w3.org/TR/2001/REC-SVG-20010904/DTD/svg10.dtd">
<svg version="1.0" xmlns="http://www.w3.org/2000/svg"
 width="1271.000000pt" height="720.000000pt" viewBox="0 0 1271.000000 720.000000"
 preserveAspectRatio="xMidYMid meet">

<g transform="translate(0.000000,720.000000) scale(0.100000,-0.100000)"
fill="#000000" stroke="none">
<path d="M11012 6068 c-5 -7 -69 -102 -141 -211 -94 -142 -130 -204 -126 -218
11 -32 61 -61 102 -57 37 3 41 8 121 128 100 151 105 160 94 160 -6 0 -51 -63
-102 -140 -87 -132 -93 -140 -124 -140 -34 0 -76 34 -76 61 0 14 62 112 87
137 7 7 13 19 14 25 0 7 37 66 82 132 68 100 87 121 110 123 36 4 74 -20 93
-61 l16 -33 -145 -220 c-79 -121 -152 -226 -161 -233 -40 -33 -156 32 -156 88
0 17 39 84 110 190 61 90 108 167 105 169 -7 7 2 19 -124 -171 -61 -93 -111
-177 -111 -187 0 -52 122 -126 172 -103 12 5 58 63 102 129 78 115 82 119 114
116 32 -3 43 10 20 24 -7 4 -8 3 -4 -4 4 -7 1 -12 -9 -12 -10 0 -13 5 -9 12 4
7 3 8 -4 4 -20 -12 -14 1 48 97 33 52 60 103 60 113 -1 60 -124 124 -158 82z"/>
<path d="M6119 5803 c-13 -16 -12 -17 4 -4 9 7 17 15 17 17 0 8 -8 3 -21 -13z"/>
<path d="M11132 5560 c0 -14 2 -19 5 -12 2 6 2 18 0 25 -3 6 -5 1 -5 -13z"/>
<path d="M11123 5495 c0 -8 4 -12 9 -9 5 3 6 10 3 15 -9 13 -12 11 -12 -6z"/>
<path d="M6075 5474 c-9 -15 -12 -23 -6 -20 11 7 35 46 28 46 -3 0 -12 -12
-22 -26z"/>
<path d="M5860 5366 c0 -2 8 -10 18 -17 15 -13 16 -12 3 4 -13 16 -21 21 -21
13z"/>
<path d="M5981 5340 c-13 -11 -19 -20 -14 -20 6 0 18 9 28 20 23 25 17 25 -14
0z"/>
<path d="M11095 5310 c3 -5 8 -10 11 -10 2 0 4 5 4 10 0 6 -5 10 -11 10 -5 0
-7 -4 -4 -10z"/>
<path d="M5810 5306 c0 -2 8 -10 18 -17 15 -13 16 -12 3 4 -13 16 -21 21 -21
13z"/>
<path d="M11094 5282 c3 -5 0 -13 -6 -15 -9 -4 -10 -6 -1 -6 17 -1 25 16 12
25 -7 4 -9 3 -5 -4z"/>
<path d="M880 4965 l0 -275 50 0 50 0 0 275 0 275 -50 0 -50 0 0 -275z"/>
<path d="M1090 4965 l0 -275 55 0 55 0 0 275 0 275 -55 0 -55 0 0 -275z"/>
<path d="M12337 5206 c-8 -8 -27 -36 -43 -61 -21 -33 -34 -44 -47 -41 -14 3
-33 -18 -82 -94 -65 -101 -98 -127 -128 -102 -7 6 -22 9 -32 8 -11 -2 -26 1
-32 6 -7 6 -24 7 -38 4 -14 -4 -31 -3 -38 1 -7 4 -23 8 -37 9 -14 1 -25 3 -25
4 0 5 -52 11 -102 10 -28 0 -54 4 -58 10 -3 6 -17 7 -31 4 -13 -3 -30 -1 -38
5 -7 6 -21 9 -30 5 -9 -3 -24 -3 -33 2 -22 9 -47 14 -93 17 -19 1 -41 6 -48
10 -7 5 -21 5 -33 2 -11 -4 -26 -2 -33 4 -7 6 -22 9 -34 6 -12 -2 -24 0 -27 6
-4 5 -17 7 -30 5 -14 -3 -27 -1 -30 4 -3 5 -17 6 -31 4 -15 -3 -46 3 -69 12
-37 14 -43 20 -39 40 2 13 0 24 -6 24 -5 0 -10 -8 -11 -17 0 -10 -3 -27 -5
-38 -6 -25 -5 -107 1 -113 3 -3 5 7 5 22 0 36 18 41 103 27 40 -6 137 -20 217
-30 80 -11 267 -37 416 -57 l271 -38 -30 -56 c-29 -52 -30 -59 -18 -89 19 -45
72 -82 126 -89 39 -4 50 -1 72 19 l25 24 -6 -30 c-8 -37 -144 -1016 -226
-1620 -69 -507 -79 -578 -84 -583 -2 -2 -77 8 -167 22 -285 44 -1156 166
-1399 196 -139 17 -200 32 -200 50 0 8 21 157 46 330 25 173 47 335 49 360 3
25 6 56 7 70 2 19 -2 26 -18 28 -26 4 -52 -24 -36 -40 6 -6 7 -19 2 -32 -9
-26 -17 -76 -71 -465 -47 -337 -49 -321 45 -321 28 0 107 -9 175 -19 68 -11
139 -18 159 -16 20 2 42 -1 48 -6 6 -5 22 -9 35 -9 49 0 94 -6 105 -13 7 -4
23 -7 35 -7 58 -2 95 -6 107 -13 7 -5 21 -5 33 -2 11 4 26 1 34 -5 8 -6 23 -9
35 -5 12 4 27 1 35 -5 8 -7 26 -9 44 -5 16 3 32 2 35 -3 3 -6 15 -8 26 -5 11
3 27 0 35 -7 8 -7 26 -9 44 -5 17 3 32 2 36 -4 3 -6 17 -8 31 -5 13 3 30 2 37
-4 6 -6 23 -11 37 -11 36 -2 93 -7 105 -11 10 -3 26 -5 105 -14 19 -3 35 -5
35 -6 0 -1 18 -4 40 -6 70 -7 90 -10 105 -17 8 -4 44 -9 80 -12 36 -3 85 -9
109 -14 52 -10 73 -5 70 18 -1 9 1 36 5 61 4 25 9 61 11 80 2 19 9 57 15 85 6
27 8 55 6 62 -3 7 -1 15 5 19 5 3 8 21 5 39 -3 19 -1 37 5 40 6 4 7 19 4 35
-3 16 -2 31 4 35 6 3 9 18 6 33 -2 14 0 31 5 37 5 6 9 25 9 41 0 16 3 47 6 69
3 22 8 56 11 75 3 19 7 49 8 65 2 17 5 35 6 40 1 6 4 24 5 40 4 35 12 96 20
145 3 19 6 49 8 67 1 17 5 35 9 39 4 4 5 18 2 31 -4 13 -1 29 5 36 5 7 8 25 6
39 -3 15 -1 30 5 33 6 3 7 17 4 31 -3 13 -1 31 5 38 7 8 9 25 6 39 -4 14 -2
28 4 32 6 3 8 17 5 30 -3 13 -2 30 2 37 5 7 9 24 10 38 0 14 4 32 7 40 4 8 5
24 3 35 -2 11 1 26 6 32 6 7 8 24 6 38 -3 14 -1 28 3 31 5 3 6 16 3 29 -3 13
-2 30 3 37 8 14 14 53 14 102 0 16 4 35 10 42 5 6 8 24 5 38 -3 14 0 28 6 32
5 3 7 17 4 31 -4 13 -3 29 1 36 4 7 9 26 10 42 2 37 11 100 14 100 1 0 3 14 5
30 13 120 23 143 134 313 61 93 110 174 110 181 0 66 -131 139 -173 97z m100
-26 c50 -30 52 -61 9 -126 -27 -41 -41 -54 -54 -50 -13 5 -27 -10 -57 -58 -40
-65 -73 -88 -99 -67 -7 6 -21 8 -33 5 -42 -11 -32 18 43 133 130 201 130 201
191 163z m-234 -330 c59 0 63 -12 22 -74 -22 -32 -45 -56 -55 -56 -24 0 -70
38 -70 57 0 28 41 85 57 79 8 -3 29 -6 46 -6z m-72 -136 c18 -9 44 -14 60 -12
18 3 26 1 22 -6 -32 -58 -88 -63 -139 -12 -35 35 -42 63 -23 98 11 21 12 20
30 -15 11 -20 33 -44 50 -53z"/>
<path d="M4458 5158 c-3 -46 -6 -53 -25 -56 -19 -3 -23 -10 -23 -43 0 -35 3
-39 25 -39 28 0 27 3 25 -97 -2 -90 17 -187 40 -208 10 -9 47 -19 89 -24 l71
-7 0 38 c0 36 -2 38 -30 38 -17 0 -39 9 -50 20 -19 19 -20 31 -18 128 l3 107
48 3 47 3 0 39 0 39 -47 3 -48 3 -3 53 -3 52 -49 0 -49 0 -3 -52z"/>
<path d="M11076 5147 c3 -10 9 -15 12 -12 3 3 0 11 -7 18 -10 9 -11 8 -5 -6z"/>
<path d="M457 5098 c-84 -23 -134 -112 -125 -225 9 -118 69 -183 179 -191 46
-3 67 0 99 17 48 25 50 25 50 7 0 -19 11 -22 65 -18 l45 4 0 204 0 204 -55 0
c-48 0 -55 -2 -55 -20 0 -25 -5 -25 -44 -1 -39 24 -110 33 -159 19z m160 -110
c37 -35 48 -92 28 -145 -43 -111 -186 -91 -201 28 -15 115 96 190 173 117z"/>
<path d="M2082 5101 c-94 -24 -152 -103 -152 -207 1 -143 94 -224 244 -211
104 9 172 76 183 179 13 133 -61 227 -192 241 -27 3 -65 2 -83 -2z m115 -101
c62 -37 69 -146 13 -202 -37 -37 -96 -39 -136 -4 -24 20 -28 33 -32 87 -3 55
-1 68 18 92 39 49 86 59 137 27z"/>
<path d="M3150 5103 c-14 -3 -37 -14 -51 -24 -34 -24 -39 -24 -39 1 0 18 -7
20 -55 20 l-55 0 0 -205 0 -205 55 0 55 0 0 124 c0 119 1 126 26 155 21 25 33
31 65 31 l39 0 0 55 c0 30 -3 54 -7 54 -5 -1 -19 -4 -33 -6z"/>
<path d="M3635 5101 c-17 -4 -43 -16 -58 -25 -26 -18 -27 -18 -27 3 0 19 -6
21 -50 21 l-50 0 0 -204 0 -204 50 -4 50 -3 0 137 c0 137 0 138 28 169 23 26
35 31 71 31 81 -1 101 -44 101 -219 l0 -111 51 -4 51 -3 -4 150 c-3 135 -6
154 -28 192 -33 60 -112 91 -185 74z"/>
<path d="M4084 5101 c-129 -33 -190 -178 -130 -307 39 -83 113 -121 219 -111
167 15 244 206 140 345 -45 60 -150 93 -229 73z m134 -115 c51 -50 36 -177
-24 -205 -41 -18 -90 -13 -120 13 -24 20 -28 33 -32 87 -3 55 -1 68 18 92 13
16 32 33 44 38 33 14 88 2 114 -25z"/>
<path d="M4875 5101 c-75 -19 -119 -59 -143 -130 -25 -72 -6 -179 41 -230 53
-57 165 -78 248 -45 37 15 99 81 99 106 0 4 -24 8 -53 8 -44 0 -58 -4 -77 -25
-28 -30 -87 -34 -124 -10 -27 18 -51 68 -41 84 4 7 61 11 156 11 l149 0 0 43
c-1 92 -61 167 -150 186 -56 12 -62 12 -105 2z m120 -106 c14 -13 25 -33 25
-45 0 -19 -6 -20 -95 -20 -86 0 -95 2 -95 19 0 10 12 30 26 45 37 36 104 37
139 1z"/>
<path d="M5309 5101 c-87 -28 -122 -98 -85 -170 16 -29 57 -50 147 -75 31 -9
62 -22 69 -30 26 -32 -15 -76 -71 -76 -11 0 -34 14 -51 30 -24 24 -38 30 -74
30 -50 0 -54 -9 -25 -56 26 -42 94 -74 159 -74 98 0 162 48 162 121 0 58 -34
91 -123 118 -112 33 -138 58 -99 94 29 27 87 22 111 -9 17 -21 26 -25 65 -22
l45 3 -18 41 c-12 27 -30 46 -52 57 -42 19 -125 29 -160 18z"/>
<path d="M1454 5068 c8 -18 46 -110 85 -205 l70 -172 -44 -102 c-25 -56 -45
-103 -45 -105 0 -2 25 -4 56 -4 54 0 55 1 70 38 9 20 61 145 116 277 56 132
107 255 115 273 l14 33 -57 -3 -57 -3 -49 -130 c-27 -71 -54 -134 -58 -139 -6
-6 -13 1 -18 15 -5 13 -28 77 -51 142 l-43 117 -59 0 -58 0 13 -32z"/>
<path d="M2440 4961 c0 -149 9 -191 48 -234 45 -48 140 -61 205 -28 34 17 37
18 49 1 10 -13 23 -16 56 -13 l42 5 0 204 0 204 -49 0 -49 0 -4 -141 -3 -141
-33 -29 c-42 -38 -82 -38 -124 0 l-33 29 -3 141 -4 141 -49 0 -49 0 0 -139z"/>
<path d="M10613 4999 c-18 -5 -34 -13 -37 -17 -3 -5 -10 -45 -15 -90 -12 -98
-4 -132 34 -132 18 0 25 -5 25 -20 0 -23 -33 -60 -54 -60 -22 0 -63 -99 -69
-166 -3 -38 -18 -91 -42 -146 -24 -57 -39 -111 -44 -159 -40 -359 -56 -471
-75 -529 l-22 -65 -54 -10 c-47 -9 -51 -12 -30 -18 14 -3 52 -9 83 -13 52 -6
57 -5 57 12 0 11 13 71 30 134 16 63 34 154 39 201 9 80 61 229 80 229 4 0 12
-53 19 -117 11 -113 6 -270 -14 -405 -6 -45 -9 -49 -46 -59 -22 -6 -38 -12
-36 -14 2 -2 29 -8 61 -13 l57 -9 0 27 c0 15 9 72 21 126 13 63 22 148 24 234
2 79 10 157 19 189 14 52 26 75 26 53 0 -5 3 -18 7 -28 4 -12 3 -15 -5 -10 -7
4 -12 2 -12 -3 0 -15 12 -14 37 4 16 11 22 28 25 77 3 35 13 145 23 246 l19
184 -37 33 c-45 42 -52 85 -12 85 14 0 39 13 57 29 28 25 32 35 36 93 4 61 2
67 -28 101 -28 32 -38 37 -74 36 -22 0 -55 -5 -73 -10z m58 -751 c-9 -28 -9
-25 -5 22 3 34 0 77 -10 114 -14 53 -14 61 2 95 l17 36 3 -117 c1 -65 -2 -132
-7 -150z"/>
<path d="M11041 4914 c0 -11 3 -14 6 -6 3 7 2 16 -1 19 -3 4 -6 -2 -5 -13z"/>
<path d="M11028 4820 c-7 -24 -3 -38 8 -28 3 4 4 17 2 30 l-3 23 -7 -25z"/>
<path d="M11001 4694 c0 -11 3 -14 6 -6 3 7 2 16 -1 19 -3 4 -6 -2 -5 -13z"/>
<path d="M10990 4608 c0 -7 5 -20 10 -28 8 -12 10 -11 10 7 0 12 -4 25 -10 28
-5 3 -10 0 -10 -7z"/>
<path d="M10986 4557 c3 -10 9 -15 12 -12 3 3 0 11 -7 18 -10 9 -11 8 -5 -6z"/>
<path d="M10960 4386 c0 -8 4 -17 9 -21 6 -3 9 4 8 15 -1 23 -17 28 -17 6z"/>
<path d="M6366 4331 c-3 -5 -24 -7 -46 -5 -22 2 -40 1 -41 -4 -9 -62 -6 -70
36 -78 77 -15 290 -22 302 -10 9 9 -58 66 -70 59 -4 -2 -14 1 -22 7 -8 7 -15
9 -15 5 0 -4 -6 -3 -13 3 -7 6 -35 14 -62 17 -28 4 -53 9 -57 11 -4 2 -9 0
-12 -5z"/>
<path d="M10940 4255 c0 -5 5 -17 10 -25 5 -8 10 -10 10 -5 0 6 -5 17 -10 25
-5 8 -10 11 -10 5z"/>
<path d="M10942 4185 c0 -16 2 -22 5 -12 2 9 2 23 0 30 -3 6 -5 -1 -5 -18z"/>
<path d="M6005 4140 c-3 -4 -16 -7 -30 -7 -14 0 -36 -10 -49 -22 -12 -11 -27
-21 -33 -21 -7 0 -18 -7 -26 -15 -13 -12 -13 -20 -4 -45 9 -25 16 -30 37 -27
31 5 80 24 98 40 14 11 22 14 73 24 14 3 39 16 55 29 25 20 27 25 14 34 -8 6
-23 8 -32 6 -10 -2 -20 0 -23 5 -7 10 -74 9 -80 -1z"/>
<path d="M6852 4115 c-11 -14 -19 -32 -18 -40 2 -14 76 -89 76 -78 0 3 6 0 13
-6 8 -6 17 -8 20 -4 4 3 9 -1 13 -10 3 -9 11 -14 18 -11 7 3 19 -2 26 -11 7
-8 10 -15 6 -15 -3 0 9 -15 27 -32 31 -30 74 -93 77 -110 1 -10 4 -20 24 -88
14 -51 61 -118 73 -106 8 8 15 56 13 91 -4 64 -6 74 -27 122 -11 26 -29 68
-39 93 -18 41 -122 156 -132 145 -6 -6 -66 30 -105 62 -36 29 -41 29 -65 -2z"/>
<path d="M10921 4084 c0 -11 3 -14 6 -6 3 7 2 16 -1 19 -3 4 -6 -2 -5 -13z"/>
<path d="M11521 4061 c-9 -6 -3 -10 20 -14 39 -5 50 0 29 13 -19 12 -31 12
-49 1z"/>
<path d="M10912 4040 c0 -14 2 -19 5 -12 2 6 2 18 0 25 -3 6 -5 1 -5 -13z"/>
<path d="M11598 4053 c6 -2 18 -2 25 0 6 3 1 5 -13 5 -14 0 -19 -2 -12 -5z"/>
<path d="M11678 4043 c6 -3 12 -9 12 -14 0 -5 9 -9 20 -9 11 0 20 5 20 10 0 6
-6 10 -12 10 -7 0 -22 2 -33 4 -11 2 -14 1 -7 -1z"/>
<path d="M11776 4022 c-6 -11 62 -27 72 -18 8 9 1 13 -35 20 -17 4 -34 3 -37
-2z"/>
<path d="M10906 3985 c4 -8 8 -15 10 -15 2 0 4 7 4 15 0 8 -4 15 -10 15 -5 0
-7 -7 -4 -15z"/>
<path d="M2590 3943 c-14 -10 -19 -21 -15 -32 4 -9 8 -20 9 -26 1 -5 14 -37
30 -69 16 -33 30 -67 31 -75 2 -9 4 -17 5 -18 2 -2 4 -7 5 -13 1 -5 3 -11 4
-12 2 -3 8 -36 14 -79 4 -27 36 -78 50 -79 6 0 11 15 8 32 0 4 6 25 14 47 9
27 11 43 3 47 -5 4 -7 20 -4 36 3 18 0 41 -9 59 -9 16 -15 31 -15 34 1 26 -3
37 -24 68 -14 20 -26 46 -28 58 -4 30 -49 42 -78 22z"/>
<path d="M11595 3930 c-3 -6 -11 -8 -16 -5 -5 4 -9 2 -9 -3 0 -5 36 -15 80
-22 95 -15 94 -15 98 4 3 15 -11 19 -100 31 -28 4 -49 2 -53 -5z"/>
<path d="M11576 3885 c5 -11 2 -14 -12 -8 -11 4 -15 3 -11 -4 4 -6 43 -16 87
-24 44 -7 80 -15 80 -19 0 -3 -38 -1 -85 5 -46 6 -82 8 -79 3 3 -4 0 -8 -5 -8
-25 0 -9 -20 17 -21 15 0 50 -7 77 -14 l50 -14 -67 6 c-53 4 -68 2 -68 -8 0
-11 -3 -10 -10 1 -8 13 -10 13 -10 -1 0 -13 18 -20 83 -30 104 -17 101 -17
105 4 2 10 -3 17 -12 17 -9 0 -16 4 -16 9 0 5 8 8 17 7 14 -1 18 8 20 41 3 48
2 48 -92 59 -33 3 -63 8 -67 11 -4 2 -5 -3 -2 -12z"/>
<path d="M10891 3844 c0 -11 3 -14 6 -6 3 7 2 16 -1 19 -3 4 -6 -2 -5 -13z"/>
<path d="M5755 3790 c-3 -5 -19 -10 -35 -10 -16 0 -32 -5 -35 -11 -4 -6 -12
-8 -19 -6 -22 9 -147 -124 -153 -161 -1 -8 -9 -22 -17 -31 -9 -10 -16 -21 -16
-26 0 -5 -6 -16 -14 -24 -15 -17 -45 -92 -50 -127 -4 -31 46 -51 76 -30 12 9
19 16 14 16 -5 0 -1 9 9 20 10 11 15 20 10 20 -4 0 -1 7 6 16 7 9 14 23 15 31
2 8 10 23 20 34 9 10 13 19 9 19 -5 0 1 10 13 23 12 13 20 26 17 29 -3 3 6 17
20 32 14 15 25 30 25 34 0 13 43 46 83 64 33 15 54 43 63 86 3 14 -32 16 -41
2z"/>
<path d="M11530 3726 c0 -9 18 -16 50 -20 91 -12 103 -26 21 -23 -103 3 -105
-17 -4 -33 43 -7 101 -13 128 -13 28 1 52 -3 55 -8 3 -4 19 -5 35 0 29 7 29 8
-15 15 -61 9 -120 28 -120 37 0 4 9 5 20 2 15 -4 20 0 20 15 0 22 -27 30 -130
37 -46 4 -60 2 -60 -9z"/>
<path d="M11517 3633 c-14 -13 -6 -21 31 -26 20 -3 48 -8 62 -11 78 -18 87
-18 94 0 3 9 5 18 3 20 -4 5 -136 24 -163 24 -11 0 -24 -3 -27 -7z"/>
<path d="M9273 3612 c-7 -4 6 -8 29 -9 44 -2 47 1 8 10 -14 3 -31 3 -37 -1z"/>
<path d="M11738 3613 c7 -3 16 -2 19 1 4 3 -2 6 -13 5 -11 0 -14 -3 -6 -6z"/>
<path d="M11770 3606 c0 -9 40 -13 46 -5 3 5 -6 9 -20 9 -14 0 -26 -2 -26 -4z"/>
<path d="M9398 3583 c7 -3 16 -2 19 1 4 3 -2 6 -13 5 -11 0 -14 -3 -6 -6z"/>
<path d="M9488 3583 c6 -2 18 -2 25 0 6 3 1 5 -13 5 -14 0 -19 -2 -12 -5z"/>
<path d="M11511 3582 c-18 -13 -7 -18 77 -32 40 -8 76 -18 79 -23 4 -6 -1 -8
-11 -4 -14 6 -17 3 -12 -9 3 -8 6 -20 6 -25 0 -5 10 -9 21 -9 17 0 20 5 17 25
-3 14 -1 28 3 31 20 12 7 32 -23 37 -77 13 -144 17 -157 9z"/>
<path d="M9608 3573 c7 -3 16 -2 19 1 4 3 -2 6 -13 5 -11 0 -14 -3 -6 -6z"/>
<path d="M9558 3553 c7 -3 16 -2 19 1 4 3 -2 6 -13 5 -11 0 -14 -3 -6 -6z"/>
<path d="M9675 3550 c-3 -6 1 -7 9 -4 18 7 21 14 7 14 -6 0 -13 -4 -16 -10z"/>
<path d="M9740 3546 c14 -8 41 -15 60 -14 l35 1 -40 7 c-22 4 -49 10 -60 14
-13 5 -11 2 5 -8z"/>
<path d="M10840 3550 c0 -5 5 -10 10 -10 6 0 10 5 10 10 0 6 -4 10 -10 10 -5
0 -10 -4 -10 -10z"/>
<path d="M11496 3525 c-4 -11 2 -15 23 -15 16 0 34 7 41 15 11 13 7 15 -23 15
-22 0 -37 -6 -41 -15z"/>
<path d="M9919 3517 c5 -5 21 -7 37 -5 27 3 26 4 -8 9 -22 3 -34 1 -29 -4z"/>
<path d="M10172 3493 c-13 -5 -7 -23 9 -23 6 0 8 4 5 9 -4 5 0 12 6 14 7 3 9
5 3 5 -5 0 -16 -2 -23 -5z"/>
<path d="M10108 3483 c7 -3 16 -2 19 1 4 3 -2 6 -13 5 -11 0 -14 -3 -6 -6z"/>
<path d="M10830 3431 l0 -39 -36 10 c-20 5 -38 7 -42 4 -3 -3 -10 -2 -16 3 -6
5 -33 11 -61 14 l-50 6 45 -15 c59 -19 153 -34 161 -26 11 12 18 82 8 82 -5 0
-9 -18 -9 -39z"/>
<path d="M10338 3453 c6 -2 18 -2 25 0 6 3 1 5 -13 5 -14 0 -19 -2 -12 -5z"/>
<path d="M11754 3425 c-4 -9 -4 -27 -1 -41 5 -25 3 -26 -36 -21 -22 3 -43 11
-47 18 -10 16 -40 4 -40 -16 0 -8 9 -15 20 -15 11 0 20 -4 20 -10 0 -5 10 -10
23 -10 20 0 48 -12 50 -21 0 -2 -5 -14 -11 -25 -9 -18 -9 -24 3 -34 9 -7 18
-10 22 -7 7 7 32 140 32 175 1 25 -26 31 -35 7z"/>
<path d="M11488 3403 c-24 -6 -23 -23 2 -23 11 0 23 -1 27 -2 4 -2 9 5 11 15
3 17 -6 19 -40 10z"/>
<path d="M11477 3353 c-14 -13 -6 -23 18 -23 16 0 25 6 25 15 0 15 -31 21 -43
8z"/>
<path d="M11552 3338 c-16 -16 -15 -33 3 -48 11 -10 18 -9 30 4 19 19 16 50
-5 54 -9 1 -21 -3 -28 -10z"/>
<path d="M11625 3330 c-8 -14 3 -30 21 -30 8 0 14 9 14 20 0 21 -24 28 -35 10z"/>
<path d="M11448 3222 c-5 -19 -2 -22 23 -22 20 0 29 5 29 16 0 11 -6 15 -20
11 -10 -3 -21 0 -23 6 -2 6 -6 1 -9 -11z"/>
<path d="M11607 3203 c-14 -13 -6 -33 13 -33 13 0 20 7 20 20 0 19 -20 27 -33
13z"/>
<path d="M2833 3171 c-28 -23 -28 -26 -2 -62 11 -16 17 -29 13 -29 -3 0 -1 -7
6 -15 7 -8 9 -15 5 -15 -5 0 -1 -8 7 -17 16 -18 49 -79 48 -88 -2 -23 64 -115
83 -115 5 0 23 -10 40 -22 48 -34 55 -32 52 19 -3 32 -9 49 -25 60 -22 15 -74
90 -75 108 0 6 -6 21 -14 35 -8 14 -14 26 -13 28 6 8 -30 72 -56 100 -35 37
-39 38 -69 13z"/>
<path d="M7320 3105 c-34 -11 -45 -34 -31 -60 3 -5 6 -19 8 -30 1 -11 5 -36 8
-55 4 -19 8 -44 10 -55 2 -11 4 -21 5 -22 3 -3 4 -6 13 -53 5 -23 26 -55 62
-93 54 -57 59 -59 56 -25 -1 9 3 19 9 23 16 10 12 31 -15 63 -13 16 -22 32
-18 35 3 4 1 13 -5 20 -7 8 -9 17 -6 20 3 3 2 12 -2 19 -4 7 -10 29 -11 48 -2
19 -4 41 -5 48 -1 6 -6 12 -12 12 -6 0 -5 4 3 9 9 6 10 14 5 22 -5 8 -9 17
-10 22 -1 4 -2 8 -4 10 -1 1 -3 10 -5 21 -6 30 -18 34 -55 21z"/>
<path d="M11412 3058 c-2 -18 0 -29 3 -26 4 3 19 3 34 -2 20 -6 28 -4 28 6 0
7 -4 11 -9 8 -12 -8 -10 10 3 23 9 9 7 11 -8 7 -12 -3 -24 -1 -27 5 -13 20
-22 12 -24 -21z"/>
<path d="M11595 2955 c-7 -99 -4 -127 11 -112 4 3 11 37 16 74 5 37 11 85 14
106 5 32 4 37 -14 37 -18 0 -21 -9 -27 -105z"/>
<path d="M5347 2996 c-15 -12 -29 -33 -31 -47 -3 -28 -53 -136 -67 -144 -5 -4
-7 -11 -4 -16 4 -5 -1 -12 -9 -15 -9 -3 -16 -13 -16 -20 0 -8 -11 -19 -24 -25
-13 -6 -27 -19 -30 -28 -4 -9 -15 -32 -26 -51 -27 -49 -25 -74 5 -88 35 -16
44 -15 53 7 4 10 30 44 59 75 29 31 50 56 48 56 -2 0 9 23 25 50 16 28 27 50
24 50 -2 0 3 15 13 33 9 17 18 39 19 47 1 8 5 33 8 55 4 22 8 50 10 63 4 29
-20 29 -57 -2z"/>
<path d="M11416 3012 c-3 -6 -1 -14 5 -17 15 -10 25 3 12 16 -7 7 -13 7 -17 1z"/>
<path d="M11450 2995 c0 -8 5 -15 10 -15 6 0 10 7 10 15 0 8 -4 15 -10 15 -5
0 -10 -7 -10 -15z"/>
<path d="M11410 2970 c0 -15 43 -30 54 -19 12 11 8 15 -26 23 -17 4 -28 2 -28
-4z"/>
<path d="M11261 2904 c0 -11 3 -14 6 -6 3 7 2 16 -1 19 -3 4 -6 -2 -5 -13z"/>
<path d="M11630 2910 c0 -5 5 -10 11 -10 5 0 7 5 4 10 -3 6 -8 10 -11 10 -2 0
-4 -4 -4 -10z"/>
<path d="M11370 2885 c0 -8 5 -15 10 -15 6 0 10 7 10 15 0 8 -4 15 -10 15 -5
0 -10 -7 -10 -15z"/>
<path d="M11386 2844 c-11 -29 -6 -34 39 -34 52 0 64 25 18 36 -16 3 -33 7
-40 9 -6 2 -14 -3 -17 -11z"/>
<path d="M11195 2840 c3 -5 10 -10 16 -10 5 0 9 5 9 10 0 6 -7 10 -16 10 -8 0
-12 -4 -9 -10z"/>
<path d="M11670 2841 c0 -6 5 -13 10 -16 6 -3 10 1 10 9 0 9 -4 16 -10 16 -5
0 -10 -4 -10 -9z"/>
<path d="M11720 2829 c0 -5 5 -7 10 -4 6 3 10 8 10 11 0 2 -4 4 -10 4 -5 0
-10 -5 -10 -11z"/>
<path d="M11640 2805 c0 -17 -35 -19 -112 -6 -35 6 -45 5 -41 -5 2 -7 26 -15
53 -19 38 -5 49 -11 54 -28 4 -17 14 -23 46 -25 22 -1 40 1 40 5 0 13 -14 30
-30 36 -9 3 -4 6 13 6 15 1 27 -2 27 -6 0 -5 27 -6 61 -5 69 4 73 14 5 15 -37
0 -46 4 -46 18 0 9 -10 19 -22 23 -36 9 -48 7 -48 -9z m-18 -47 c-6 -6 -15 -8
-19 -4 -4 4 -1 11 7 16 19 12 27 3 12 -12z"/>
<path d="M11233 2794 c-10 -27 11 -31 34 -7 l22 23 -25 0 c-13 0 -27 -7 -31
-16z"/>
<path d="M11450 2761 c0 -25 6 -27 13 -6 4 8 2 17 -3 20 -6 4 -10 -3 -10 -14z"/>
<path d="M11336 2734 c-14 -36 -6 -72 17 -78 44 -12 67 -7 69 14 6 69 5 80 -7
70 -13 -11 -42 -9 -61 3 -7 4 -15 0 -18 -9z"/>
<path d="M11725 2550 c17 -4 39 -8 50 -8 16 0 15 2 -5 8 -14 4 -36 8 -50 8
-22 0 -22 -1 5 -8z"/>
<path d="M3237 2509 c-22 -24 -14 -62 21 -104 13 -16 41 -50 61 -75 76 -93
175 -180 206 -180 43 0 -16 128 -90 195 -12 11 -40 47 -62 80 -38 55 -91 106
-110 104 -4 0 -16 -9 -26 -20z"/>
<path d="M9474 2489 c-3 -5 6 -14 20 -20 14 -7 23 -16 20 -20 -8 -14 -18 -11
-42 12 -19 17 -28 19 -50 11 l-27 -10 25 -1 c42 -2 51 -13 40 -51 -6 -20 -6
-38 -1 -43 5 -5 50 -8 101 -8 106 1 184 -10 324 -45 72 -18 102 -22 112 -14 9
8 19 8 34 0 30 -16 54 4 37 31 -6 10 -18 19 -25 19 -7 0 -10 5 -7 10 4 6 10 8
14 5 12 -7 31 42 31 80 0 19 -5 37 -12 41 -7 4 -8 3 -4 -4 9 -15 -26 -29 -86
-36 -23 -2 -43 -5 -43 -6 0 -1 -24 -2 -53 -3 -28 -1 -52 0 -52 3 0 3 -18 4
-40 4 -22 -1 -40 1 -40 5 0 3 -19 7 -43 8 -23 2 -66 5 -94 8 -60 7 -65 2 -25
-19 22 -12 24 -16 11 -21 -11 -4 -26 3 -42 19 -15 14 -23 26 -19 26 10 1 -30
24 -45 26 -7 1 -15 -2 -19 -7z m181 -49 c13 -6 15 -9 5 -9 -8 0 -22 4 -30 9
-18 12 -2 12 25 0z m52 4 c-3 -3 -12 -4 -19 -1 -8 3 -5 6 6 6 11 1 17 -2 13
-5z m189 -27 c12 4 15 3 10 -6 -5 -7 -18 -10 -31 -7 -14 4 -36 -1 -53 -11 -25
-14 -35 -15 -56 -5 -37 17 -33 35 7 29 17 -3 41 -2 52 2 11 5 28 5 37 0 9 -5
24 -6 34 -2z m97 -14 c-7 -2 -19 -2 -25 0 -7 3 -2 5 12 5 14 0 19 -2 13 -5z
m-49 -18 c-7 -16 -24 -21 -24 -6 0 8 7 13 27 20 1 1 0 -6 -3 -14z"/>
<path d="M10070 2356 c0 -14 27 -42 34 -35 2 2 0 14 -5 27 -9 24 -29 30 -29 8z"/>
<path d="M10708 2338 c-3 -26 -4 -33 -12 -55 -4 -13 -2 -32 6 -45 7 -13 13
-31 14 -40 1 -10 3 -21 4 -25 1 -5 1 -16 0 -26 -1 -10 6 -29 14 -43 9 -13 13
-24 10 -24 -4 0 0 -8 9 -18 10 -10 15 -21 12 -24 -3 -3 1 -11 9 -17 12 -10 20
-9 39 3 13 9 26 14 29 11 11 -12 0 76 -12 90 -7 8 -9 15 -5 15 4 0 2 7 -5 15
-7 8 -9 15 -5 15 4 0 2 7 -5 15 -7 8 -9 15 -5 15 4 0 2 6 -4 14 -7 8 -14 24
-16 35 -2 12 -16 36 -30 52 -14 17 -25 35 -25 40 0 14 -20 11 -22 -3z"/>
<path d="M9431 2303 c-1 -63 24 -74 274 -113 116 -18 214 -36 219 -41 5 -4 0
-6 -10 -3 -11 3 -33 -2 -49 -10 -17 -9 -55 -16 -90 -16 -52 0 -95 6 -252 34
-54 10 -85 25 -80 40 3 7 1 19 -4 27 -6 10 -9 3 -9 -22 0 -75 42 -99 230 -134
148 -27 271 -37 304 -23 34 14 73 87 53 100 -9 6 -9 8 0 8 23 0 44 58 37 97
l-7 37 -18 -23 -18 -22 -88 34 c-146 58 -277 67 -445 31 -23 -5 -30 -2 -37 17
-9 21 -10 19 -10 -18z"/>
<path d="M4799 2288 c-11 -15 -24 -26 -28 -24 -4 3 -19 -1 -33 -8 -15 -8 -31
-10 -39 -5 -7 4 -19 3 -25 -2 -7 -6 -15 -6 -18 -1 -8 13 -96 15 -111 2 -7 -6
-17 -10 -21 -9 -5 1 -12 0 -16 -1 -13 -4 -28 -7 -39 -9 -14 -1 -5 -71 11 -81
11 -7 39 -6 48 0 1 2 10 3 20 4 9 1 22 5 29 9 6 4 14 3 17 -2 3 -4 29 -6 58
-4 29 3 64 6 78 7 14 1 31 5 38 9 6 5 12 5 12 1 0 -3 7 -1 15 6 8 7 15 9 15 5
0 -5 9 0 20 10 11 10 18 21 15 24 -2 4 14 22 35 40 38 32 46 56 15 44 -9 -3
-21 -1 -28 5 -21 17 -47 9 -68 -20z"/>
<path d="M7584 2281 c-27 -22 -36 -57 -18 -72 8 -6 14 -17 14 -25 0 -19 110
-146 123 -141 15 5 18 78 5 95 -6 6 -7 12 -2 12 5 0 2 5 -6 10 -8 5 -16 21
-17 34 -2 28 -25 63 -58 88 -19 14 -22 14 -41 -1z"/>
<path d="M3768 2167 c-20 -31 -17 -69 5 -73 10 -1 27 -10 36 -18 10 -9 21 -16
26 -16 5 0 16 -7 26 -16 9 -8 23 -17 31 -18 7 -1 28 -10 46 -19 17 -10 32 -15
32 -11 0 4 6 2 13 -4 6 -5 32 -13 57 -16 25 -3 57 -8 73 -11 33 -6 34 3 5 41
-12 16 -23 30 -24 32 -1 2 -8 5 -16 6 -24 5 -53 19 -70 34 -10 8 -18 11 -18 7
0 -5 -11 2 -25 15 -14 13 -25 20 -25 15 0 -5 -11 2 -25 15 -14 13 -25 20 -25
15 0 -4 -9 0 -19 9 -11 10 -25 15 -31 11 -6 -4 -22 0 -35 9 -22 14 -24 14 -37
-7z"/>
<path d="M10847 1729 c-26 -30 -39 -88 -16 -73 6 3 5 -4 -2 -17 -8 -13 -14
-28 -15 -34 0 -5 -6 -23 -12 -38 -7 -16 -12 -32 -12 -36 0 -4 -7 -21 -14 -37
-8 -16 -18 -48 -22 -71 -6 -36 -4 -44 12 -49 11 -3 26 -9 35 -14 23 -12 38 2
43 38 2 17 9 39 16 47 7 8 9 15 5 15 -4 0 -2 7 5 15 12 15 21 52 21 87 0 10 4
20 8 22 7 5 6 67 -3 126 -2 14 -4 31 -5 38 -2 20 -15 14 -44 -19z"/>
<path d="M7917 1618 c-32 -32 -34 -49 -7 -73 11 -10 20 -22 20 -26 0 -28 116
-169 140 -169 16 0 8 95 -11 118 -10 14 -19 34 -19 46 0 12 -22 46 -48 76
l-49 54 -26 -26z"/>
<path d="M10618 1178 c-15 -18 -26 -36 -25 -40 1 -3 -9 -18 -22 -31 -15 -17
-24 -39 -25 -64 0 -21 -4 -43 -9 -50 -11 -17 2 -43 19 -36 8 3 20 0 28 -6 10
-8 16 -8 23 1 9 12 25 45 27 58 1 3 5 11 10 18 4 7 5 16 2 19 -3 3 -1 12 5 19
6 7 13 43 15 79 4 75 -6 83 -48 33z"/>
<path d="M8313 1084 c3 -4 0 -19 -8 -35 -14 -26 -13 -30 8 -52 25 -28 120 -86
145 -90 9 -1 22 -5 27 -8 16 -8 35 -5 35 6 -1 45 -81 132 -152 164 -47 21 -67
26 -55 15z"/>
<path d="M10257 795 c-15 -8 -29 -13 -30 -12 -7 6 -55 -42 -73 -73 -19 -34
-25 -65 -13 -65 4 0 15 -7 25 -16 14 -12 25 -14 42 -8 13 5 21 13 17 18 -3 6
0 13 7 18 25 15 78 153 60 153 -4 0 -19 -7 -35 -15z"/>
<path d="M8825 732 c-11 -8 -14 -77 -4 -77 4 0 16 -9 28 -19 12 -11 21 -15 21
-11 0 4 9 0 19 -9 11 -10 25 -19 33 -20 7 -2 30 -11 52 -20 21 -10 54 -19 73
-22 19 -2 39 -7 44 -10 15 -9 10 33 -6 46 -8 7 -15 19 -15 26 0 8 -8 14 -17
14 -10 0 -31 14 -46 29 -16 16 -43 35 -60 41 -18 7 -41 16 -52 20 -37 16 -60
20 -70 12z"/>
<path d="M9786 623 c-3 -3 -28 -7 -56 -8 -31 -1 -57 -8 -69 -19 -11 -10 -24
-16 -28 -13 -5 3 -14 -3 -21 -13 -7 -12 -8 -21 -2 -25 6 -4 8 -10 5 -15 -3 -5
2 -15 10 -24 14 -13 19 -13 50 0 19 8 35 11 35 8 0 -4 7 0 17 7 9 8 17 13 17
11 1 -5 56 15 86 31 27 14 41 50 18 46 -7 -2 -23 2 -34 9 -12 6 -24 8 -28 5z"/>
</g>
</svg>
